
<svg xmlns="http://www.w3.org/2000/svg" viewBox="0 0 64 64" width="64" height="64" fill="none" stroke="currentColor" stroke-width="2.2" stroke-linecap="round" stroke-linejoin="round">
  
  <path d="M38 28 C 46 30 52 36 52 44 C 52 50 46 54 38 54 C 30 54 22 50 20 44 C 18 38 22 30 28 28 Z"></path>
  
  <circle cx="26" cy="24" r="10"></circle>
  
  <path d="M18 22 C 14 22 12 24 14 26 C 16 28 20 27 20 24"></path>
  
  <circle cx="26" cy="22" r="1.6" fill="currentColor" stroke="none"></circle>
  
  <path d="M34 38 C 38 40 42 44 40 48"></path>
  
  <path d="M32 54 L 32 58 M 28 54 L 28 58"></path>
  
  <path d="M24 14 L 22 10 M 26 13 L 26 9 M 28 14 L 30 10" stroke-width="1.6"></path>
</svg>