
<svg xmlns="http://www.w3.org/2000/svg" viewBox="0 0 64 64" width="64" height="64" fill="none" stroke="currentColor" stroke-width="2.2" stroke-linecap="round" stroke-linejoin="round">
  
  <path d="M14 36 C 14 26 22 20 32 20 C 42 20 50 26 50 36 C 50 44 44 50 32 50 C 20 50 14 44 14 36 Z"></path>
  
  <path d="M18 24 L 16 12 L 26 20 Z" fill="currentColor"></path>
  
  <path d="M46 24 L 48 12 L 38 20 Z" fill="currentColor"></path>
  
  <path d="M24 32 C 25 30 27 30 28 32" stroke-width="2.4"></path>
  <path d="M36 32 C 37 30 39 30 40 32" stroke-width="2.4"></path>
  
  <path d="M30 38 L 34 38 L 32 40 Z" fill="currentColor" stroke="none"></path>
  
  <path d="M32 40 L 32 42 M 32 42 C 30 44 28 43 28 42 M 32 42 C 34 44 36 43 36 42"></path>
  
  <path d="M14 38 L 22 37 M 14 42 L 22 40" stroke-width="1.2"></path>
  <path d="M50 38 L 42 37 M 50 42 L 42 40" stroke-width="1.2"></path>
</svg>