
<svg xmlns="http://www.w3.org/2000/svg" viewBox="0 0 64 64" width="64" height="64" fill="none" stroke="currentColor" stroke-width="2.2" stroke-linecap="round" stroke-linejoin="round">
  
  <ellipse cx="32" cy="42" rx="14" ry="12"></ellipse>
  
  <path d="M24 32 C 22 20 22 10 26 8 C 30 10 30 22 28 32"></path>
  
  <path d="M40 32 C 42 20 42 10 38 8 C 34 10 34 22 36 32"></path>
  
  <path d="M25 28 C 25 20 26 14 27 12" stroke-width="1.2"></path>
  <path d="M39 28 C 39 20 38 14 37 12" stroke-width="1.2"></path>
  
  <circle cx="27" cy="42" r="1.6" fill="currentColor" stroke="none"></circle>
  <circle cx="37" cy="42" r="1.6" fill="currentColor" stroke="none"></circle>
  
  <path d="M30 48 L 32 47 L 34 48 M 32 47 L 32 49"></path>
  
  <path d="M22 48 L 28 47 M 22 50 L 28 48" stroke-width="1"></path>
  <path d="M42 48 L 36 47 M 42 50 L 36 48" stroke-width="1"></path>
</svg>